<svg xmlns="http://www.w3.org/2000/svg" width="32" height="32" viewBox="0 0 32 32">
  <path fill="#646CFF" d="M27.562 8.62c-.445-.773-2.121-1.024-4.33-.688c-1.027-2.346-2.855-4.282-5.494-4.282c-5.927 0-10.745 6.718-10.745 15.006c0 4.236 1.753 7.98 4.408 10.276c2.977 2.582 6.696 2.946 9.838 1.075c2.917-1.737 5.132-5.753 5.132-10.6c0-1.155-.123-2.284-.356-3.367c1.943-1.392 3.112-2.886 2.547-4.42zm-3.442.4c-.186.324-.422.677-.698 1.04a29.85 29.85 0 0 0-1.067-2.502c1.023-.188 1.618-.167 1.765-.086zM16.78 25.737c-.712 0-1.126-.65-1.126-2.136c0-1.253.276-2.922.708-4.683c.69.214 1.421.371 2.173.468a31.828 31.828 0 0 1 .369 4.215c0 1.486-.415 2.136-1.126 2.136zm-2.345-14.243c.44-1.347.966-2.542 1.543-3.534c.462.82.938 1.798 1.39 2.895a23.635 23.635 0 0 0-2.933.639zm-4.112 7.784c0-5.345 3.394-9.756 7.37-9.756c.888 0 1.665.3 2.345.833a30.435 30.435 0 0 1-1.728 3.535a23.878 23.878 0 0 0-3.23-.233c-1.175 0-2.095.138-2.782.386c-.115.634-.178 1.288-.178 1.957c0 .778.087 1.533.252 2.255c.639.242 1.451.386 2.439.386c.97 0 2.053-.113 3.211-.34a30.896 30.896 0 0 1-1.62 3.583c-.761.611-1.623.95-2.576.95c-3.976 0-7.37-4.41-7.37-9.755zM16 5.65c.986 0 1.834.72 2.47 1.902c-.786 1.02-1.531 2.348-2.137 3.915c-.639-1.618-1.396-2.98-2.19-4.015c.589-1.136 1.373-1.802 2.29-1.802zm2.41 9.704a20.26 20.26 0 0 1 1.998-.43a20.89 20.89 0 0 1-.36 3.6a20.233 20.233 0 0 1-2.1-.443c.182-1.021.332-1.917.462-2.727zm5.728-6.629c.762-.188 1.387-.208 1.544-.08a.228.228 0 0 1 .107.164c.099.511-.546 1.457-1.762 2.373a25.243 25.243 0 0 0-.88-1.763c.36-.26.689-.49.991-.694z"/>
</svg> 